<?xml version="1.0" encoding="utf-8"?>
<svg width="755.88" height="661.08" viewBox="0 0 755.88 661.08" fill="none" xmlns="http://www.w3.org/2000/svg">
  <defs>
    <path id="path_1" d="M0 0L755.88 0L755.88 661.08L0 661.08L0 0L0 0Z" />
    <clipPath id="clip_path_2">
      <use p4:href="#path_1" xmlns:p4="http://www.w3.org/1999/xlink" />
    </clipPath>
  </defs>
  <g id="g10" transform="matrix(1 0 0 -1 -0 661.08)">
    <g id="g12">
      <g id="Mask Group">
        <path id="path16" d="M0 0L755.88 0L755.88 661.08L0 661.08L0 0L0 0Z" />
        <g clip-path="url(#clip_path_2)">
          <g id="g14" transform="translate(32.04 23.52)">
            <path id="path20" d="M359.76 311.56L179.88 0L0 311.56L359.76 311.56" fill="none" stroke-width="2" stroke="#000000" stroke-linecap="round" stroke-linejoin="round" transform="translate(173.88 0)" />
            <path id="path22" d="M12 0L0 0" fill="none" stroke-width="2" stroke="#FF0000" stroke-linecap="round" stroke-linejoin="round" transform="translate(347.76 612.76)" />
            <path id="path24" d="M347.76 0L0 0" fill="none" stroke-width="2" stroke="#FF0000" stroke-linecap="round" stroke-linejoin="round" transform="translate(179.88 321.96)" />
            <path id="path26" d="M335.76 0L0 0" fill="none" stroke-width="2" stroke="#FF0000" stroke-linecap="round" stroke-linejoin="round" transform="translate(185.88 332.32)" />
            <path id="path28" d="M323.76 0L0 0" fill="none" stroke-width="2" stroke="#FF0000" stroke-linecap="round" stroke-linejoin="round" transform="translate(191.88 342.72)" />
            <path id="path30" d="M311.8 0L0 0" fill="none" stroke-width="2" stroke="#FF0000" stroke-linecap="round" stroke-linejoin="round" transform="translate(197.84 353.12)" />
            <path id="path32" d="M299.8 0L0 0" fill="none" stroke-width="2" stroke="#FF0000" stroke-linecap="round" stroke-linejoin="round" transform="translate(203.84 363.48)" />
            <path id="path34" d="M287.8 0L0 0" fill="none" stroke-width="2" stroke="#FF0000" stroke-linecap="round" stroke-linejoin="round" transform="translate(209.84 373.88)" />
            <path id="path36" d="M275.84 0L0 0" fill="none" stroke-width="2" stroke="#FF0000" stroke-linecap="round" stroke-linejoin="round" transform="translate(215.84 384.28)" />
            <path id="path38" d="M263.84 0L0 0" fill="none" stroke-width="2" stroke="#FF0000" stroke-linecap="round" stroke-linejoin="round" transform="translate(221.84 394.64)" />
            <path id="path40" d="M251.84 0L0 0" fill="none" stroke-width="2" stroke="#FF0000" stroke-linecap="round" stroke-linejoin="round" transform="translate(227.84 405.04)" />
            <path id="path42" d="M239.84 0L0 0" fill="none" stroke-width="2" stroke="#FF0000" stroke-linecap="round" stroke-linejoin="round" transform="translate(233.84 415.44)" />
            <path id="path44" d="M227.84 0L0 0" fill="none" stroke-width="2" stroke="#FF0000" stroke-linecap="round" stroke-linejoin="round" transform="translate(239.84 425.8)" />
            <path id="path46" d="M215.84 0L0 0" fill="none" stroke-width="2" stroke="#FF0000" stroke-linecap="round" stroke-linejoin="round" transform="translate(245.84 436.2)" />
            <path id="path48" d="M203.84 0L0 0" fill="none" stroke-width="2" stroke="#FF0000" stroke-linecap="round" stroke-linejoin="round" transform="translate(251.84 446.56)" />
            <path id="path50" d="M191.88 0L0 0" fill="none" stroke-width="2" stroke="#FF0000" stroke-linecap="round" stroke-linejoin="round" transform="translate(257.8 456.96)" />
            <path id="path52" d="M179.88 0L0 0" fill="none" stroke-width="2" stroke="#FF0000" stroke-linecap="round" stroke-linejoin="round" transform="translate(263.8 467.36)" />
            <path id="path54" d="M167.88 0L0 0" fill="none" stroke-width="2" stroke="#FF0000" stroke-linecap="round" stroke-linejoin="round" transform="translate(269.8 477.72)" />
            <path id="path56" d="M155.92 0L0 0" fill="none" stroke-width="2" stroke="#FF0000" stroke-linecap="round" stroke-linejoin="round" transform="translate(275.8 488.12)" />
            <path id="path58" d="M143.92 0L0 0" fill="none" stroke-width="2" stroke="#FF0000" stroke-linecap="round" stroke-linejoin="round" transform="translate(281.8 498.52)" />
            <path id="path60" d="M131.92 0L0 0" fill="none" stroke-width="2" stroke="#FF0000" stroke-linecap="round" stroke-linejoin="round" transform="translate(287.8 508.88)" />
            <path id="path62" d="M119.92 0L0 0" fill="none" stroke-width="2" stroke="#FF0000" stroke-linecap="round" stroke-linejoin="round" transform="translate(293.8 519.28)" />
            <path id="path64" d="M107.92 0L0 0" fill="none" stroke-width="2" stroke="#FF0000" stroke-linecap="round" stroke-linejoin="round" transform="translate(299.8 529.68)" />
            <path id="path66" d="M95.92 0L0 0" fill="none" stroke-width="2" stroke="#FF0000" stroke-linecap="round" stroke-linejoin="round" transform="translate(305.8 540.04)" />
            <path id="path68" d="M83.92 0L0 0" fill="none" stroke-width="2" stroke="#FF0000" stroke-linecap="round" stroke-linejoin="round" transform="translate(311.8 550.44)" />
            <path id="path70" d="M71.96 0L0 0" fill="none" stroke-width="2" stroke="#FF0000" stroke-linecap="round" stroke-linejoin="round" transform="translate(317.76 560.8)" />
            <path id="path72" d="M59.96 0L0 0" fill="none" stroke-width="2" stroke="#FF0000" stroke-linecap="round" stroke-linejoin="round" transform="translate(323.76 571.2)" />
            <path id="path74" d="M47.96 0L0 0" fill="none" stroke-width="2" stroke="#FF0000" stroke-linecap="round" stroke-linejoin="round" transform="translate(329.76 581.6)" />
            <path id="path76" d="M36 0L0 0" fill="none" stroke-width="2" stroke="#FF0000" stroke-linecap="round" stroke-linejoin="round" transform="translate(335.76 591.96)" />
            <path id="path78" d="M24 0L0 0" fill="none" stroke-width="2" stroke="#FF0000" stroke-linecap="round" stroke-linejoin="round" transform="translate(341.76 602.36)" />
            <path id="path80" d="M0 10.4L6 0" fill="none" stroke-width="2" stroke="#FF0000" stroke-linecap="round" stroke-linejoin="round" />
            <path id="path82" d="M0 301.2L173.88 0" fill="none" stroke-width="2" stroke="#FF0000" stroke-linecap="round" stroke-linejoin="round" transform="translate(167.88 0)" />
            <path id="path84" d="M0 290.8L167.88 0" fill="none" stroke-width="2" stroke="#FF0000" stroke-linecap="round" stroke-linejoin="round" transform="translate(161.88 0)" />
            <path id="path86" d="M0 280.4L161.88 0" fill="none" stroke-width="2" stroke="#FF0000" stroke-linecap="round" stroke-linejoin="round" transform="translate(155.88 0)" />
            <path id="path88" d="M0 270.04L155.92 0" fill="none" stroke-width="2" stroke="#FF0000" stroke-linecap="round" stroke-linejoin="round" transform="translate(149.88 0)" />
            <path id="path90" d="M0 259.64L149.92 0" fill="none" stroke-width="2" stroke="#FF0000" stroke-linecap="round" stroke-linejoin="round" transform="translate(143.88 0)" />
            <path id="path92" d="M0 249.24L143.92 0" fill="none" stroke-width="2" stroke="#FF0000" stroke-linecap="round" stroke-linejoin="round" transform="translate(137.88 0)" />
            <path id="path94" d="M0 238.88L137.88 0" fill="none" stroke-width="2" stroke="#FF0000" stroke-linecap="round" stroke-linejoin="round" transform="translate(131.92 0)" />
            <path id="path96" d="M0 228.48L131.88 0" fill="none" stroke-width="2" stroke="#FF0000" stroke-linecap="round" stroke-linejoin="round" transform="translate(125.92 0)" />
            <path id="path98" d="M0 218.08L125.92 0" fill="none" stroke-width="2" stroke="#FF0000" stroke-linecap="round" stroke-linejoin="round" transform="translate(119.92 0)" />
            <path id="path100" d="M0 207.72L119.92 0" fill="none" stroke-width="2" stroke="#FF0000" stroke-linecap="round" stroke-linejoin="round" transform="translate(113.92 0)" />
            <path id="path102" d="M0 197.32L113.92 0" fill="none" stroke-width="2" stroke="#FF0000" stroke-linecap="round" stroke-linejoin="round" transform="translate(107.92 0)" />
            <path id="path104" d="M0 186.96L107.92 0" fill="none" stroke-width="2" stroke="#FF0000" stroke-linecap="round" stroke-linejoin="round" transform="translate(101.92 0)" />
            <path id="path106" d="M0 176.56L101.92 0" fill="none" stroke-width="2" stroke="#FF0000" stroke-linecap="round" stroke-linejoin="round" transform="translate(95.92 0)" />
            <path id="path108" d="M0 166.16L95.96 0" fill="none" stroke-width="2" stroke="#FF0000" stroke-linecap="round" stroke-linejoin="round" transform="translate(89.92 0)" />
            <path id="path110" d="M0 155.8L89.96 0" fill="none" stroke-width="2" stroke="#FF0000" stroke-linecap="round" stroke-linejoin="round" transform="translate(83.92 0)" />
            <path id="path112" d="M0 145.4L83.96 0" fill="none" stroke-width="2" stroke="#FF0000" stroke-linecap="round" stroke-linejoin="round" transform="translate(77.92 0)" />
            <path id="path114" d="M0 135L77.92 0" fill="none" stroke-width="2" stroke="#FF0000" stroke-linecap="round" stroke-linejoin="round" transform="translate(71.96 0)" />
            <path id="path116" d="M0 124.64L71.92 0" fill="none" stroke-width="2" stroke="#FF0000" stroke-linecap="round" stroke-linejoin="round" transform="translate(65.96 0)" />
            <path id="path118" d="M0 114.24L65.96 0" fill="none" stroke-width="2" stroke="#FF0000" stroke-linecap="round" stroke-linejoin="round" transform="translate(59.96 0)" />
            <path id="path120" d="M0 103.84L59.96 0" fill="none" stroke-width="2" stroke="#FF0000" stroke-linecap="round" stroke-linejoin="round" transform="translate(53.96 0)" />
            <path id="path122" d="M0 93.48L53.96 0" fill="none" stroke-width="2" stroke="#FF0000" stroke-linecap="round" stroke-linejoin="round" transform="translate(47.96 0)" />
            <path id="path124" d="M0 83.08L47.96 0" fill="none" stroke-width="2" stroke="#FF0000" stroke-linecap="round" stroke-linejoin="round" transform="translate(41.96 0)" />
            <path id="path126" d="M0 72.72L41.96 0" fill="none" stroke-width="2" stroke="#FF0000" stroke-linecap="round" stroke-linejoin="round" transform="translate(35.96 0)" />
            <path id="path128" d="M0 62.32L36 0" fill="none" stroke-width="2" stroke="#FF0000" stroke-linecap="round" stroke-linejoin="round" transform="translate(29.96 0)" />
            <path id="path130" d="M0 51.92L30 0" fill="none" stroke-width="2" stroke="#FF0000" stroke-linecap="round" stroke-linejoin="round" transform="translate(23.96 0)" />
            <path id="path132" d="M0 41.56L24 0" fill="none" stroke-width="2" stroke="#FF0000" stroke-linecap="round" stroke-linejoin="round" transform="translate(17.96 0)" />
            <path id="path134" d="M0 31.16L17.96 0" fill="none" stroke-width="2" stroke="#FF0000" stroke-linecap="round" stroke-linejoin="round" transform="translate(12 0)" />
            <path id="path136" d="M0 20.76L11.96 0" fill="none" stroke-width="2" stroke="#FF0000" stroke-linecap="round" stroke-linejoin="round" transform="translate(6 0)" />
            <path id="path138" d="M0 0L6 10.4" fill="none" stroke-width="2" stroke="#FF0000" stroke-linecap="round" stroke-linejoin="round" transform="translate(701.52 0)" />
            <path id="path140" d="M0 0L173.88 301.2" fill="none" stroke-width="2" stroke="#FF0000" stroke-linecap="round" stroke-linejoin="round" transform="translate(365.76 0)" />
            <path id="path142" d="M0 0L167.92 290.8" fill="none" stroke-width="2" stroke="#FF0000" stroke-linecap="round" stroke-linejoin="round" transform="translate(377.72 0)" />
            <path id="path144" d="M0 0L161.92 280.4" fill="none" stroke-width="2" stroke="#FF0000" stroke-linecap="round" stroke-linejoin="round" transform="translate(389.72 0)" />
            <path id="path146" d="M0 0L155.88 270.04" fill="none" stroke-width="2" stroke="#FF0000" stroke-linecap="round" stroke-linejoin="round" transform="translate(401.72 0)" />
            <path id="path148" d="M0 0L149.88 259.64" fill="none" stroke-width="2" stroke="#FF0000" stroke-linecap="round" stroke-linejoin="round" transform="translate(413.72 0)" />
            <path id="path150" d="M0 0L143.88 249.24" fill="none" stroke-width="2" stroke="#FF0000" stroke-linecap="round" stroke-linejoin="round" transform="translate(425.72 0)" />
            <path id="path152" d="M0 0L137.92 238.88" fill="none" stroke-width="2" stroke="#FF0000" stroke-linecap="round" stroke-linejoin="round" transform="translate(437.68 0)" />
            <path id="path154" d="M0 0L131.92 228.48" fill="none" stroke-width="2" stroke="#FF0000" stroke-linecap="round" stroke-linejoin="round" transform="translate(449.68 0)" />
            <path id="path156" d="M0 0L125.92 218.08" fill="none" stroke-width="2" stroke="#FF0000" stroke-linecap="round" stroke-linejoin="round" transform="translate(461.68 0)" />
            <path id="path158" d="M0 0L119.92 207.72" fill="none" stroke-width="2" stroke="#FF0000" stroke-linecap="round" stroke-linejoin="round" transform="translate(473.68 0)" />
            <path id="path160" d="M0 0L113.92 197.32" fill="none" stroke-width="2" stroke="#FF0000" stroke-linecap="round" stroke-linejoin="round" transform="translate(485.68 0)" />
            <path id="path162" d="M0 0L107.96 186.96" fill="none" stroke-width="2" stroke="#FF0000" stroke-linecap="round" stroke-linejoin="round" transform="translate(497.64 0)" />
            <path id="path164" d="M0 0L101.96 176.56" fill="none" stroke-width="2" stroke="#FF0000" stroke-linecap="round" stroke-linejoin="round" transform="translate(509.64 0)" />
            <path id="path166" d="M0 0L95.92 166.16" fill="none" stroke-width="2" stroke="#FF0000" stroke-linecap="round" stroke-linejoin="round" transform="translate(521.64 0)" />
            <path id="path168" d="M0 0L89.92 155.8" fill="none" stroke-width="2" stroke="#FF0000" stroke-linecap="round" stroke-linejoin="round" transform="translate(533.64 0)" />
            <path id="path170" d="M0 0L83.92 145.4" fill="none" stroke-width="2" stroke="#FF0000" stroke-linecap="round" stroke-linejoin="round" transform="translate(545.64 0)" />
            <path id="path172" d="M0 0L77.96 135" fill="none" stroke-width="2" stroke="#FF0000" stroke-linecap="round" stroke-linejoin="round" transform="translate(557.6 0)" />
            <path id="path174" d="M0 0L71.96 124.64" fill="none" stroke-width="2" stroke="#FF0000" stroke-linecap="round" stroke-linejoin="round" transform="translate(569.6 0)" />
            <path id="path176" d="M0 0L65.96 114.24" fill="none" stroke-width="2" stroke="#FF0000" stroke-linecap="round" stroke-linejoin="round" transform="translate(581.6 0)" />
            <path id="path178" d="M0 0L59.96 103.84" fill="none" stroke-width="2" stroke="#FF0000" stroke-linecap="round" stroke-linejoin="round" transform="translate(593.6 0)" />
            <path id="path180" d="M0 0L53.96 93.48" fill="none" stroke-width="2" stroke="#FF0000" stroke-linecap="round" stroke-linejoin="round" transform="translate(605.6 0)" />
            <path id="path182" d="M0 0L48 83.08" fill="none" stroke-width="2" stroke="#FF0000" stroke-linecap="round" stroke-linejoin="round" transform="translate(617.56 0)" />
            <path id="path184" d="M0 0L42 72.72" fill="none" stroke-width="2" stroke="#FF0000" stroke-linecap="round" stroke-linejoin="round" transform="translate(629.56 0)" />
            <path id="path186" d="M0 0L35.96 62.32" fill="none" stroke-width="2" stroke="#FF0000" stroke-linecap="round" stroke-linejoin="round" transform="translate(641.56 0)" />
            <path id="path188" d="M0 0L29.96 51.92" fill="none" stroke-width="2" stroke="#FF0000" stroke-linecap="round" stroke-linejoin="round" transform="translate(653.56 0)" />
            <path id="path190" d="M0 0L23.96 41.56" fill="none" stroke-width="2" stroke="#FF0000" stroke-linecap="round" stroke-linejoin="round" transform="translate(665.56 0)" />
            <path id="path192" d="M0 0L18 31.16" fill="none" stroke-width="2" stroke="#FF0000" stroke-linecap="round" stroke-linejoin="round" transform="translate(677.52 0)" />
            <path id="path194" d="M0 0L12 20.76" fill="none" stroke-width="2" stroke="#FF0000" stroke-linecap="round" stroke-linejoin="round" transform="translate(689.52 0)" />
          </g>
        </g>
      </g>
    </g>
  </g>
</svg>