<?xml version="1.0" encoding="utf-8"?>
<svg width="926" height="285" viewBox="0 0 926 285" fill="none" xmlns="http://www.w3.org/2000/svg">
  <defs>
    <clipPath id="clip_path_1">
      <rect width="581" height="170" />
    </clipPath>
    <path id="path_2" d="M0 0L326 0L326 285L0 285L0 0L0 0Z" />
    <clipPath id="clip_path_3">
      <use p4:href="#path_2" xmlns:p4="http://www.w3.org/1999/xlink" />
    </clipPath>
    <clipPath id="clip_path_4">
      <rect width="566" height="45" />
    </clipPath>
  </defs>
  <g id="Group">
    <g id="Group">
      <path d="M9.504 37.152L25.92 37.152L55.008 81.648L61.488 92.304L67.968 81.648L97.2 37.152L113.616 37.152L113.616 139.536L97.2 139.536L97.2 76.896L97.488 64.944L67.392 111.312L55.44 111.312L25.632 64.944L25.92 76.752L25.92 139.536L9.504 139.536L9.504 37.152ZM132.624 37.152L184.32 37.152Q195.696 37.152 202.68 44.064Q209.664 50.976 209.664 61.92L209.664 65.232Q209.664 72.432 207 77.76Q204.336 83.088 199.296 86.112Q205.488 89.28 208.872 95.256Q212.256 101.232 212.256 109.584L212.256 113.616Q212.256 125.28 204.768 132.408Q197.28 139.536 185.04 139.536L132.624 139.536L132.624 37.152ZM183.6 123.696Q188.928 123.696 192.456 120.384Q195.984 117.072 195.984 111.456L195.984 107.856Q195.984 102.24 192.456 98.856Q188.928 95.472 183.6 95.472L148.896 95.472L148.896 123.696L183.6 123.696ZM181.152 80.064Q186.336 80.064 189.864 76.752Q193.392 73.44 193.392 67.968L193.392 64.8Q193.392 59.328 189.864 56.088Q186.336 52.848 181.152 52.848L148.896 52.848L148.896 80.064L181.152 80.064ZM257.184 37.152L274.752 37.152L315.792 139.536L298.08 139.536L289.008 116.208L242.928 116.208L233.568 139.536L215.856 139.536L257.184 37.152ZM283.824 100.8L265.968 55.44L248.112 100.8L283.824 100.8ZM355.104 141.552Q338.256 141.552 328.896 134.28Q319.536 127.008 318.384 113.184Q318.24 112.032 318.24 109.152L334.944 109.152Q334.944 117.936 340.416 121.824Q345.888 125.712 356.256 125.712L363.168 125.712Q372.528 125.712 377.424 122.04Q382.32 118.368 382.464 112.32Q382.464 105.552 378.36 102.456Q374.256 99.36 365.76 97.488L348.768 93.6Q338.832 91.44 333 88.992Q327.168 86.544 323.136 80.784Q319.104 75.024 319.104 64.656Q319.104 50.832 328.464 42.984Q337.824 35.136 355.824 35.136L360.72 35.136Q377.424 35.136 386.568 42.336Q395.712 49.536 397.008 63.216Q397.152 64.656 397.152 67.536L380.448 67.536Q380.448 58.608 375.336 54.648Q370.224 50.688 359.856 50.688L355.104 50.688Q345.456 50.688 340.632 54.288Q335.808 57.888 335.808 64.224Q335.808 70.416 339.768 73.44Q343.728 76.464 351.36 78.192L368.352 82.224Q378.432 84.528 384.624 87.192Q390.816 89.856 394.992 95.688Q399.168 101.52 399.168 111.888Q399.168 125.424 389.52 133.488Q379.872 141.552 362.16 141.552L355.104 141.552ZM412.416 37.152L483.12 37.152L483.12 52.848L428.832 52.848L428.832 80.208L478.512 80.208L478.512 95.616L428.832 95.616L428.832 123.552L483.696 123.552L483.696 139.536L412.416 139.536L412.416 37.152Z" fill="#000000" clip-path="url(#clip_path_1)" transform="translate(345 0)" />
      <g id="g10" transform="matrix(1 0 0 -1 0 285)">
        <g id="g12">
          <g id="Group">
            <path id="path16" d="M0 0L326 0L326 285L0 285L0 0L0 0Z" />
            <g clip-path="url(#clip_path_3)">
              <g id="g14" transform="translate(13.818 10.14)">
                <path id="path20" d="M155.164 134.313L77.5822 0L0 134.313L155.164 134.313" fill="none" stroke-width="2" stroke="#000000" stroke-linecap="round" stroke-linejoin="round" transform="translate(74.994 0)" />
                <path id="path22" d="M5.1756 0L0 0" fill="none" stroke-width="2" stroke="#FF0000" stroke-linecap="round" stroke-linejoin="round" transform="translate(149.989 264.161)" />
                <path id="path24" d="M149.989 0L0 0" fill="none" stroke-width="2" stroke="#FF0000" stroke-linecap="round" stroke-linejoin="round" transform="translate(77.582 138.797)" />
                <path id="path26" d="M144.813 0L0 0" fill="none" stroke-width="2" stroke="#FF0000" stroke-linecap="round" stroke-linejoin="round" transform="translate(80.17 143.263)" />
                <path id="path28" d="M139.638 0L0 0" fill="none" stroke-width="2" stroke="#FF0000" stroke-linecap="round" stroke-linejoin="round" transform="translate(82.758 147.747)" />
                <path id="path30" d="M134.479 0L0 0" fill="none" stroke-width="2" stroke="#FF0000" stroke-linecap="round" stroke-linejoin="round" transform="translate(85.328 152.23)" />
                <path id="path32" d="M129.304 0L0 0" fill="none" stroke-width="2" stroke="#FF0000" stroke-linecap="round" stroke-linejoin="round" transform="translate(87.916 156.696)" />
                <path id="path34" d="M124.128 0L0 0" fill="none" stroke-width="2" stroke="#FF0000" stroke-linecap="round" stroke-linejoin="round" transform="translate(90.504 161.18)" />
                <path id="path36" d="M118.97 0L0 0" fill="none" stroke-width="2" stroke="#FF0000" stroke-linecap="round" stroke-linejoin="round" transform="translate(93.092 165.663)" />
                <path id="path38" d="M113.794 0L0 0" fill="none" stroke-width="2" stroke="#FF0000" stroke-linecap="round" stroke-linejoin="round" transform="translate(95.68 170.129)" />
                <path id="path40" d="M108.619 0L0 0" fill="none" stroke-width="2" stroke="#FF0000" stroke-linecap="round" stroke-linejoin="round" transform="translate(98.267 174.613)" />
                <path id="path42" d="M103.443 0L0 0" fill="none" stroke-width="2" stroke="#FF0000" stroke-linecap="round" stroke-linejoin="round" transform="translate(100.855 179.096)" />
                <path id="path44" d="M98.2674 0L0 0" fill="none" stroke-width="2" stroke="#FF0000" stroke-linecap="round" stroke-linejoin="round" transform="translate(103.443 183.562)" />
                <path id="path46" d="M93.0918 0L0 0" fill="none" stroke-width="2" stroke="#FF0000" stroke-linecap="round" stroke-linejoin="round" transform="translate(106.031 188.046)" />
                <path id="path48" d="M87.9162 0L0 0" fill="none" stroke-width="2" stroke="#FF0000" stroke-linecap="round" stroke-linejoin="round" transform="translate(108.619 192.512)" />
                <path id="path50" d="M82.7578 0L0 0" fill="none" stroke-width="2" stroke="#FF0000" stroke-linecap="round" stroke-linejoin="round" transform="translate(111.189 196.996)" />
                <path id="path52" d="M77.5822 0L0 0" fill="none" stroke-width="2" stroke="#FF0000" stroke-linecap="round" stroke-linejoin="round" transform="translate(113.777 201.479)" />
                <path id="path54" d="M72.4066 0L0 0" fill="none" stroke-width="2" stroke="#FF0000" stroke-linecap="round" stroke-linejoin="round" transform="translate(116.365 205.945)" />
                <path id="path56" d="M67.2483 0L0 0" fill="none" stroke-width="2" stroke="#FF0000" stroke-linecap="round" stroke-linejoin="round" transform="translate(118.953 210.429)" />
                <path id="path58" d="M62.0727 0L0 0" fill="none" stroke-width="2" stroke="#FF0000" stroke-linecap="round" stroke-linejoin="round" transform="translate(121.54 214.912)" />
                <path id="path60" d="M56.8971 0L0 0" fill="none" stroke-width="2" stroke="#FF0000" stroke-linecap="round" stroke-linejoin="round" transform="translate(124.128 219.378)" />
                <path id="path62" d="M51.7215 0L0 0" fill="none" stroke-width="2" stroke="#FF0000" stroke-linecap="round" stroke-linejoin="round" transform="translate(126.716 223.862)" />
                <path id="path64" d="M46.5459 0L0 0" fill="none" stroke-width="2" stroke="#FF0000" stroke-linecap="round" stroke-linejoin="round" transform="translate(129.304 228.345)" />
                <path id="path66" d="M41.3703 0L0 0" fill="none" stroke-width="2" stroke="#FF0000" stroke-linecap="round" stroke-linejoin="round" transform="translate(131.892 232.811)" />
                <path id="path68" d="M36.1947 0L0 0" fill="none" stroke-width="2" stroke="#FF0000" stroke-linecap="round" stroke-linejoin="round" transform="translate(134.48 237.295)" />
                <path id="path70" d="M31.0363 0L0 0" fill="none" stroke-width="2" stroke="#FF0000" stroke-linecap="round" stroke-linejoin="round" transform="translate(137.05 241.761)" />
                <path id="path72" d="M25.8607 0L0 0" fill="none" stroke-width="2" stroke="#FF0000" stroke-linecap="round" stroke-linejoin="round" transform="translate(139.638 246.244)" />
                <path id="path74" d="M20.6852 0L0 0" fill="none" stroke-width="2" stroke="#FF0000" stroke-linecap="round" stroke-linejoin="round" transform="translate(142.226 250.728)" />
                <path id="path76" d="M15.5268 0L0 0" fill="none" stroke-width="2" stroke="#FF0000" stroke-linecap="round" stroke-linejoin="round" transform="translate(144.813 255.194)" />
                <path id="path78" d="M10.3512 0L0 0" fill="none" stroke-width="2" stroke="#FF0000" stroke-linecap="round" stroke-linejoin="round" transform="translate(147.401 259.677)" />
                <path id="path80" d="M0 4.48344L2.5878 0" fill="none" stroke-width="2" stroke="#FF0000" stroke-linecap="round" stroke-linejoin="round" />
                <path id="path82" d="M0 129.847L74.9944 0" fill="none" stroke-width="2" stroke="#FF0000" stroke-linecap="round" stroke-linejoin="round" transform="translate(72.406 0)" />
                <path id="path84" d="M0 125.364L72.4066 0" fill="none" stroke-width="2" stroke="#FF0000" stroke-linecap="round" stroke-linejoin="round" transform="translate(69.819 0)" />
                <path id="path86" d="M0 120.88L69.8188 0" fill="none" stroke-width="2" stroke="#FF0000" stroke-linecap="round" stroke-linejoin="round" transform="translate(67.231 0)" />
                <path id="path88" d="M0 116.414L67.2483 0" fill="none" stroke-width="2" stroke="#FF0000" stroke-linecap="round" stroke-linejoin="round" transform="translate(64.643 0)" />
                <path id="path90" d="M0 111.931L64.6605 0" fill="none" stroke-width="2" stroke="#FF0000" stroke-linecap="round" stroke-linejoin="round" transform="translate(62.055 0)" />
                <path id="path92" d="M0 107.447L62.0727 0" fill="none" stroke-width="2" stroke="#FF0000" stroke-linecap="round" stroke-linejoin="round" transform="translate(59.468 0)" />
                <path id="path94" d="M0 102.981L59.4677 0" fill="none" stroke-width="2" stroke="#FF0000" stroke-linecap="round" stroke-linejoin="round" transform="translate(56.897 0)" />
                <path id="path96" d="M0 98.4977L56.8799 0" fill="none" stroke-width="2" stroke="#FF0000" stroke-linecap="round" stroke-linejoin="round" transform="translate(54.309 0)" />
                <path id="path98" d="M0 94.0143L54.3093 0" fill="none" stroke-width="2" stroke="#FF0000" stroke-linecap="round" stroke-linejoin="round" transform="translate(51.721 0)" />
                <path id="path100" d="M0 89.5481L51.7215 0" fill="none" stroke-width="2" stroke="#FF0000" stroke-linecap="round" stroke-linejoin="round" transform="translate(49.134 0)" />
                <path id="path102" d="M0 85.0646L49.1337 0" fill="none" stroke-width="2" stroke="#FF0000" stroke-linecap="round" stroke-linejoin="round" transform="translate(46.546 0)" />
                <path id="path104" d="M0 80.5984L46.5459 0" fill="none" stroke-width="2" stroke="#FF0000" stroke-linecap="round" stroke-linejoin="round" transform="translate(43.958 0)" />
                <path id="path106" d="M0 76.115L43.9581 0" fill="none" stroke-width="2" stroke="#FF0000" stroke-linecap="round" stroke-linejoin="round" transform="translate(41.37 0)" />
                <path id="path108" d="M0 71.6316L41.3876 0" fill="none" stroke-width="2" stroke="#FF0000" stroke-linecap="round" stroke-linejoin="round" transform="translate(38.782 0)" />
                <path id="path110" d="M0 67.1654L38.7998 0" fill="none" stroke-width="2" stroke="#FF0000" stroke-linecap="round" stroke-linejoin="round" transform="translate(36.195 0)" />
                <path id="path112" d="M0 62.6819L36.212 0" fill="none" stroke-width="2" stroke="#FF0000" stroke-linecap="round" stroke-linejoin="round" transform="translate(33.607 0)" />
                <path id="path114" d="M0 58.1985L33.6069 0" fill="none" stroke-width="2" stroke="#FF0000" stroke-linecap="round" stroke-linejoin="round" transform="translate(31.036 0)" />
                <path id="path116" d="M0 53.7323L31.0191 0" fill="none" stroke-width="2" stroke="#FF0000" stroke-linecap="round" stroke-linejoin="round" transform="translate(28.448 0)" />
                <path id="path118" d="M0 49.2489L28.4486 0" fill="none" stroke-width="2" stroke="#FF0000" stroke-linecap="round" stroke-linejoin="round" transform="translate(25.861 0)" />
                <path id="path120" d="M0 44.7654L25.8607 0" fill="none" stroke-width="2" stroke="#FF0000" stroke-linecap="round" stroke-linejoin="round" transform="translate(23.273 0)" />
                <path id="path122" d="M0 40.2992L23.2729 0" fill="none" stroke-width="2" stroke="#FF0000" stroke-linecap="round" stroke-linejoin="round" transform="translate(20.685 0)" />
                <path id="path124" d="M0 35.8158L20.6852 0" fill="none" stroke-width="2" stroke="#FF0000" stroke-linecap="round" stroke-linejoin="round" transform="translate(18.097 0)" />
                <path id="path126" d="M0 31.3496L18.0973 0" fill="none" stroke-width="2" stroke="#FF0000" stroke-linecap="round" stroke-linejoin="round" transform="translate(15.51 0)" />
                <path id="path128" d="M0 26.8661L15.5268 0" fill="none" stroke-width="2" stroke="#FF0000" stroke-linecap="round" stroke-linejoin="round" transform="translate(12.922 0)" />
                <path id="path130" d="M0 22.3827L12.939 0" fill="none" stroke-width="2" stroke="#FF0000" stroke-linecap="round" stroke-linejoin="round" transform="translate(10.334 0)" />
                <path id="path132" d="M0 17.9165L10.3512 0" fill="none" stroke-width="2" stroke="#FF0000" stroke-linecap="round" stroke-linejoin="round" transform="translate(7.746 0)" />
                <path id="path134" d="M0 13.4331L7.74615 0" fill="none" stroke-width="2" stroke="#FF0000" stroke-linecap="round" stroke-linejoin="round" transform="translate(5.176 0)" />
                <path id="path136" d="M0 8.94964L5.15835 0" fill="none" stroke-width="2" stroke="#FF0000" stroke-linecap="round" stroke-linejoin="round" transform="translate(2.588 0)" />
                <path id="path138" d="M0 0L2.5878 4.48344" fill="none" stroke-width="2" stroke="#FF0000" stroke-linecap="round" stroke-linejoin="round" transform="translate(302.566 0)" />
                <path id="path140" d="M0 0L74.9944 129.847" fill="none" stroke-width="2" stroke="#FF0000" stroke-linecap="round" stroke-linejoin="round" transform="translate(157.752 0)" />
                <path id="path142" d="M0 0L72.4239 125.364" fill="none" stroke-width="2" stroke="#FF0000" stroke-linecap="round" stroke-linejoin="round" transform="translate(162.911 0)" />
                <path id="path144" d="M0 0L69.8361 120.88" fill="none" stroke-width="2" stroke="#FF0000" stroke-linecap="round" stroke-linejoin="round" transform="translate(168.086 0)" />
                <path id="path146" d="M0 0L67.231 116.414" fill="none" stroke-width="2" stroke="#FF0000" stroke-linecap="round" stroke-linejoin="round" transform="translate(173.262 0)" />
                <path id="path148" d="M0 0L64.6432 111.931" fill="none" stroke-width="2" stroke="#FF0000" stroke-linecap="round" stroke-linejoin="round" transform="translate(178.438 0)" />
                <path id="path150" d="M0 0L62.0554 107.447" fill="none" stroke-width="2" stroke="#FF0000" stroke-linecap="round" stroke-linejoin="round" transform="translate(183.613 0)" />
                <path id="path152" d="M0 0L59.4849 102.981" fill="none" stroke-width="2" stroke="#FF0000" stroke-linecap="round" stroke-linejoin="round" transform="translate(188.772 0)" />
                <path id="path154" d="M0 0L56.8971 98.4977" fill="none" stroke-width="2" stroke="#FF0000" stroke-linecap="round" stroke-linejoin="round" transform="translate(193.947 0)" />
                <path id="path156" d="M0 0L54.3093 94.0143" fill="none" stroke-width="2" stroke="#FF0000" stroke-linecap="round" stroke-linejoin="round" transform="translate(199.123 0)" />
                <path id="path158" d="M0 0L51.7215 89.5481" fill="none" stroke-width="2" stroke="#FF0000" stroke-linecap="round" stroke-linejoin="round" transform="translate(204.298 0)" />
                <path id="path160" d="M0 0L49.1337 85.0646" fill="none" stroke-width="2" stroke="#FF0000" stroke-linecap="round" stroke-linejoin="round" transform="translate(209.474 0)" />
                <path id="path162" d="M0 0L46.5631 80.5984" fill="none" stroke-width="2" stroke="#FF0000" stroke-linecap="round" stroke-linejoin="round" transform="translate(214.632 0)" />
                <path id="path164" d="M0 0L43.9753 76.115" fill="none" stroke-width="2" stroke="#FF0000" stroke-linecap="round" stroke-linejoin="round" transform="translate(219.808 0)" />
                <path id="path166" d="M0 0L41.3703 71.6316" fill="none" stroke-width="2" stroke="#FF0000" stroke-linecap="round" stroke-linejoin="round" transform="translate(224.983 0)" />
                <path id="path168" d="M0 0L38.7825 67.1654" fill="none" stroke-width="2" stroke="#FF0000" stroke-linecap="round" stroke-linejoin="round" transform="translate(230.159 0)" />
                <path id="path170" d="M0 0L36.1947 62.6819" fill="none" stroke-width="2" stroke="#FF0000" stroke-linecap="round" stroke-linejoin="round" transform="translate(235.335 0)" />
                <path id="path172" d="M0 0L33.6242 58.1985" fill="none" stroke-width="2" stroke="#FF0000" stroke-linecap="round" stroke-linejoin="round" transform="translate(240.493 0)" />
                <path id="path174" d="M0 0L31.0363 53.7323" fill="none" stroke-width="2" stroke="#FF0000" stroke-linecap="round" stroke-linejoin="round" transform="translate(245.669 0)" />
                <path id="path176" d="M0 0L28.4485 49.2489" fill="none" stroke-width="2" stroke="#FF0000" stroke-linecap="round" stroke-linejoin="round" transform="translate(250.844 0)" />
                <path id="path178" d="M0 0L25.8607 44.7654" fill="none" stroke-width="2" stroke="#FF0000" stroke-linecap="round" stroke-linejoin="round" transform="translate(256.02 0)" />
                <path id="path180" d="M0 0L23.2729 40.2992" fill="none" stroke-width="2" stroke="#FF0000" stroke-linecap="round" stroke-linejoin="round" transform="translate(261.195 0)" />
                <path id="path182" d="M0 0L20.7024 35.8158" fill="none" stroke-width="2" stroke="#FF0000" stroke-linecap="round" stroke-linejoin="round" transform="translate(266.354 0)" />
                <path id="path184" d="M0 0L18.1146 31.3496" fill="none" stroke-width="2" stroke="#FF0000" stroke-linecap="round" stroke-linejoin="round" transform="translate(271.529 0)" />
                <path id="path186" d="M0 0L15.5096 26.8661" fill="none" stroke-width="2" stroke="#FF0000" stroke-linecap="round" stroke-linejoin="round" transform="translate(276.705 0)" />
                <path id="path188" d="M0 0L12.9218 22.3827" fill="none" stroke-width="2" stroke="#FF0000" stroke-linecap="round" stroke-linejoin="round" transform="translate(281.88 0)" />
                <path id="path190" d="M0 0L10.334 17.9165" fill="none" stroke-width="2" stroke="#FF0000" stroke-linecap="round" stroke-linejoin="round" transform="translate(287.056 0)" />
                <path id="path192" d="M0 0L7.7634 13.4331" fill="none" stroke-width="2" stroke="#FF0000" stroke-linecap="round" stroke-linejoin="round" transform="translate(292.214 0)" />
                <path id="path194" d="M0 0L5.1756 8.94964" fill="none" stroke-width="2" stroke="#FF0000" stroke-linecap="round" stroke-linejoin="round" transform="translate(297.39 0)" />
              </g>
            </g>
          </g>
        </g>
      </g>
    </g>
    <path d="M10.44 35.388Q6.228 35.388 3.888 33.57Q1.548 31.752 1.26 28.296Q1.224 28.008 1.224 27.288L5.4 27.288Q5.4 29.484 6.768 30.456Q8.136 31.428 10.728 31.428L12.456 31.428Q14.796 31.428 16.02 30.51Q17.244 29.592 17.28 28.08Q17.28 26.388 16.254 25.614Q15.228 24.84 13.104 24.372L8.856 23.4Q6.372 22.86 4.914 22.248Q3.456 21.636 2.448 20.196Q1.44 18.756 1.44 16.164Q1.44 12.708 3.78 10.746Q6.12 8.784 10.62 8.784L11.844 8.784Q16.02 8.784 18.306 10.584Q20.592 12.384 20.916 15.804Q20.952 16.164 20.952 16.884L16.776 16.884Q16.776 14.652 15.498 13.662Q14.22 12.672 11.628 12.672L10.44 12.672Q8.028 12.672 6.822 13.572Q5.616 14.472 5.616 16.056Q5.616 17.604 6.606 18.36Q7.596 19.116 9.504 19.548L13.752 20.556Q16.272 21.132 17.82 21.798Q19.368 22.464 20.412 23.922Q21.456 25.38 21.456 27.972Q21.456 31.356 19.044 33.372Q16.632 35.388 12.204 35.388L10.44 35.388ZM31.716 35.388Q27.792 35.388 25.704 33.3Q23.616 31.212 23.616 27.324L23.616 24.012Q23.616 20.16 25.704 18.072Q27.792 15.984 31.716 15.984L32.58 15.984Q36.468 15.984 38.556 18.072Q40.644 20.16 40.644 24.012L40.644 27.324Q40.644 31.212 38.556 33.3Q36.468 35.388 32.58 35.388L31.716 35.388ZM27.612 27.36Q27.612 29.412 28.692 30.528Q29.772 31.644 31.752 31.644L32.508 31.644Q34.488 31.644 35.568 30.528Q36.648 29.412 36.648 27.36L36.648 24.012Q36.648 21.924 35.568 20.808Q34.488 19.692 32.508 19.692L31.752 19.692Q29.772 19.692 28.692 20.808Q27.612 21.924 27.612 24.012L27.612 27.36ZM43.56 16.992Q43.56 14.688 44.568 12.942Q45.576 11.196 47.412 10.242Q49.248 9.288 51.624 9.288L54.108 9.288L54.108 12.816L51.624 12.816Q49.644 12.816 48.582 13.914Q47.52 15.012 47.52 17.172L47.52 17.532L53.46 17.532L53.46 21.06L47.52 21.06L47.52 34.884L43.56 34.884L43.56 16.992ZM59.796 12.132L59.796 16.452L65.412 16.452L65.412 20.016L59.796 20.016L59.796 27.36Q59.796 31.248 64.152 31.248L65.844 31.248L65.844 34.884L63.54 34.884Q59.904 34.884 57.87 33.066Q55.836 31.248 55.836 27.648L55.836 12.132L59.796 12.132ZM81.972 25.848L81.252 23.76L80.532 25.848L77.004 34.884L73.152 34.884L66.708 16.452L70.956 16.452L73.944 25.596L75.168 30.06L79.272 19.26L78.12 16.452L82.224 16.452L87.3 30.06L88.524 25.56L91.476 16.452L95.688 16.452L89.388 34.884L85.536 34.884L81.972 25.848ZM102.672 35.388Q99.576 35.388 97.758 33.75Q95.94 32.112 95.94 29.448Q95.94 26.784 97.758 25.182Q99.576 23.58 102.672 23.58L108.576 23.58L108.576 22.644Q108.576 21.24 107.622 20.358Q106.668 19.476 105.048 19.476L104.184 19.476Q102.708 19.476 101.754 20.178Q100.8 20.88 100.584 22.032L96.552 22.032Q97.056 19.008 99.09 17.496Q101.124 15.984 104.328 15.984L104.724 15.984Q108.576 15.984 110.502 17.946Q112.428 19.908 112.428 23.544L112.428 29.124Q112.428 30.42 112.77 30.942Q113.112 31.464 113.94 31.464L114.804 31.464L114.804 34.884L112.788 34.884Q110.124 34.884 109.296 32.688Q108.648 34.02 107.334 34.704Q106.02 35.388 104.328 35.388L102.672 35.388ZM100.008 29.34Q100.008 30.564 100.908 31.302Q101.808 32.04 103.392 32.04L104.4 32.04Q106.272 32.04 107.424 31.068Q108.576 30.096 108.576 28.224L108.576 26.64L103.392 26.64Q101.808 26.64 100.908 27.378Q100.008 28.116 100.008 29.34ZM127.584 20.196L124.884 20.196Q123.084 20.196 121.914 21.438Q120.744 22.68 120.744 24.588L120.744 34.884L116.784 34.884L116.784 24.192Q116.784 20.484 118.908 18.468Q121.032 16.452 124.812 16.452L127.584 16.452L127.584 20.196ZM136.764 35.388Q132.84 35.388 130.752 33.3Q128.664 31.212 128.664 27.324L128.664 24.012Q128.664 20.16 130.752 18.072Q132.84 15.984 136.764 15.984L137.52 15.984Q141.408 15.984 143.496 18.072Q145.584 20.16 145.584 24.012L145.584 27.324L132.588 27.324L132.588 27.54Q132.588 29.592 133.668 30.708Q134.748 31.824 136.728 31.824L137.52 31.824Q138.996 31.824 139.968 31.212Q140.94 30.6 141.336 29.484L145.404 29.484Q144.864 32.328 142.848 33.858Q140.832 35.388 137.52 35.388L136.764 35.388ZM141.696 24.156L141.696 23.796Q141.696 21.708 140.634 20.61Q139.572 19.512 137.556 19.512L136.728 19.512Q134.712 19.512 133.65 20.61Q132.588 21.708 132.588 23.796L132.588 24.156L141.696 24.156ZM157.5 9.288L168.912 9.288Q171.648 9.288 173.808 10.494Q175.968 11.7 177.192 13.824Q178.416 15.948 178.416 18.612L178.416 25.56Q178.416 28.224 177.174 30.348Q175.932 32.472 173.772 33.678Q171.612 34.884 168.912 34.884L157.5 34.884L157.5 9.288ZM168.696 30.852Q171.252 30.852 172.746 29.394Q174.24 27.936 174.24 25.38L174.24 18.756Q174.24 16.2 172.746 14.742Q171.252 13.284 168.696 13.284L161.604 13.284L161.604 30.852L168.696 30.852ZM189.468 35.388Q185.544 35.388 183.456 33.3Q181.368 31.212 181.368 27.324L181.368 24.012Q181.368 20.16 183.456 18.072Q185.544 15.984 189.468 15.984L190.224 15.984Q194.112 15.984 196.2 18.072Q198.288 20.16 198.288 24.012L198.288 27.324L185.292 27.324L185.292 27.54Q185.292 29.592 186.372 30.708Q187.452 31.824 189.432 31.824L190.224 31.824Q191.7 31.824 192.672 31.212Q193.644 30.6 194.04 29.484L198.108 29.484Q197.568 32.328 195.552 33.858Q193.536 35.388 190.224 35.388L189.468 35.388ZM194.4 24.156L194.4 23.796Q194.4 21.708 193.338 20.61Q192.276 19.512 190.26 19.512L189.432 19.512Q187.416 19.512 186.354 20.61Q185.292 21.708 185.292 23.796L185.292 24.156L194.4 24.156ZM198.684 16.452L202.968 16.452L206.532 25.668L208.08 30.348L209.628 25.668L213.192 16.452L217.476 16.452L210.096 34.884L206.064 34.884L198.684 16.452ZM225.972 35.388Q222.048 35.388 219.96 33.3Q217.872 31.212 217.872 27.324L217.872 24.012Q217.872 20.16 219.96 18.072Q222.048 15.984 225.972 15.984L226.728 15.984Q230.616 15.984 232.704 18.072Q234.792 20.16 234.792 24.012L234.792 27.324L221.796 27.324L221.796 27.54Q221.796 29.592 222.876 30.708Q223.956 31.824 225.936 31.824L226.728 31.824Q228.204 31.824 229.176 31.212Q230.148 30.6 230.544 29.484L234.612 29.484Q234.072 32.328 232.056 33.858Q230.04 35.388 226.728 35.388L225.972 35.388ZM230.904 24.156L230.904 23.796Q230.904 21.708 229.842 20.61Q228.78 19.512 226.764 19.512L225.936 19.512Q223.92 19.512 222.858 20.61Q221.796 21.708 221.796 23.796L221.796 24.156L230.904 24.156ZM241.74 9.288L241.74 28.224Q241.74 29.772 242.532 30.474Q243.324 31.176 245.088 31.176L246.312 31.176L246.312 34.884L244.224 34.884Q240.912 34.884 239.346 33.282Q237.78 31.68 237.78 27.972L237.78 9.288L241.74 9.288ZM255.42 35.388Q251.496 35.388 249.408 33.3Q247.32 31.212 247.32 27.324L247.32 24.012Q247.32 20.16 249.408 18.072Q251.496 15.984 255.42 15.984L256.284 15.984Q260.172 15.984 262.26 18.072Q264.348 20.16 264.348 24.012L264.348 27.324Q264.348 31.212 262.26 33.3Q260.172 35.388 256.284 35.388L255.42 35.388ZM251.316 27.36Q251.316 29.412 252.396 30.528Q253.476 31.644 255.456 31.644L256.212 31.644Q258.192 31.644 259.272 30.528Q260.352 29.412 260.352 27.36L260.352 24.012Q260.352 21.924 259.272 20.808Q258.192 19.692 256.212 19.692L255.456 19.692Q253.476 19.692 252.396 20.808Q251.316 21.924 251.316 24.012L251.316 27.36ZM275.616 35.352Q272.664 35.352 271.008 33.48L271.116 35.28L271.116 42.48L267.156 42.48L267.156 24.012Q267.156 20.124 269.208 18.036Q271.26 15.948 275.22 15.948L276.192 15.948Q280.116 15.948 282.204 18.054Q284.292 20.16 284.292 24.012L284.292 27.324Q284.292 31.14 282.312 33.246Q280.332 35.352 276.804 35.352L275.616 35.352ZM271.116 27.36Q271.116 29.412 272.178 30.528Q273.24 31.644 275.256 31.644L276.156 31.644Q278.136 31.644 279.216 30.528Q280.296 29.412 280.296 27.36L280.296 24.012Q280.296 21.924 279.216 20.808Q278.136 19.692 276.156 19.692L275.256 19.692Q273.24 19.692 272.178 20.808Q271.116 21.924 271.116 24.012L271.116 27.36ZM287.1 23.868Q287.1 20.052 289.044 18.018Q290.988 15.984 294.624 15.984L294.984 15.984Q297.324 15.984 298.818 16.848Q300.312 17.712 301.068 19.116Q301.824 17.712 303.318 16.848Q304.812 15.984 307.152 15.984L307.476 15.984Q311.112 15.984 313.074 18.018Q315.036 20.052 315.036 23.868L315.036 34.884L311.076 34.884L311.076 23.976Q311.076 22.032 310.068 20.934Q309.06 19.836 307.26 19.836L306.864 19.836Q305.028 19.836 304.038 20.934Q303.048 22.032 303.048 23.976L303.048 34.884L299.088 34.884L299.088 23.976Q299.088 22.032 298.08 20.934Q297.072 19.836 295.272 19.836L294.876 19.836Q293.04 19.836 292.05 20.934Q291.06 22.032 291.06 23.976L291.06 34.884L287.1 34.884L287.1 23.868ZM325.8 35.388Q321.876 35.388 319.788 33.3Q317.7 31.212 317.7 27.324L317.7 24.012Q317.7 20.16 319.788 18.072Q321.876 15.984 325.8 15.984L326.556 15.984Q330.444 15.984 332.532 18.072Q334.62 20.16 334.62 24.012L334.62 27.324L321.624 27.324L321.624 27.54Q321.624 29.592 322.704 30.708Q323.784 31.824 325.764 31.824L326.556 31.824Q328.032 31.824 329.004 31.212Q329.976 30.6 330.372 29.484L334.44 29.484Q333.9 32.328 331.884 33.858Q329.868 35.388 326.556 35.388L325.8 35.388ZM330.732 24.156L330.732 23.796Q330.732 21.708 329.67 20.61Q328.608 19.512 326.592 19.512L325.764 19.512Q323.748 19.512 322.686 20.61Q321.624 21.708 321.624 23.796L321.624 24.156L330.732 24.156ZM337.428 23.868Q337.428 20.016 339.426 18Q341.424 15.984 345.24 15.984L346.212 15.984Q349.992 15.984 352.008 18Q354.024 20.016 354.024 23.868L354.024 34.884L350.064 34.884L350.064 23.94Q350.064 21.924 349.038 20.862Q348.012 19.8 346.068 19.8L345.384 19.8Q343.44 19.8 342.414 20.862Q341.388 21.924 341.388 23.94L341.388 34.884L337.428 34.884L337.428 23.868ZM361.152 12.132L361.152 16.452L366.768 16.452L366.768 20.016L361.152 20.016L361.152 27.36Q361.152 31.248 365.508 31.248L367.2 31.248L367.2 34.884L364.896 34.884Q361.26 34.884 359.226 33.066Q357.192 31.248 357.192 27.648L357.192 12.132L361.152 12.132ZM378.396 9.288L382.5 9.288L382.5 21.816L387.54 16.2L393.804 9.288L399.096 9.288L389.052 20.34L400.032 34.884L394.92 34.884L386.208 23.22L382.5 27.252L382.5 34.884L378.396 34.884L378.396 9.288ZM401.4 16.452L405.36 16.452L405.36 34.884L401.4 34.884L401.4 16.452ZM401.364 9.54L405.36 9.54L405.36 13.86L401.364 13.86L401.364 9.54ZM412.596 12.132L412.596 16.452L418.212 16.452L418.212 20.016L412.596 20.016L412.596 27.36Q412.596 31.248 416.952 31.248L418.644 31.248L418.644 34.884L416.34 34.884Q412.704 34.884 410.67 33.066Q408.636 31.248 408.636 27.648L408.636 12.132L412.596 12.132Z" fill="#000000" clip-path="url(#clip_path_4)" transform="translate(353 180)" />
  </g>
</svg>