<?xml version="1.0" encoding="UTF-8"?><svg id="Layer_1" xmlns="http://www.w3.org/2000/svg" viewBox="0 0 519.47 108.35"><defs><style>.cls-1{fill:#9e1c20;}.cls-2{fill:#fff;stroke:#231f20;stroke-miterlimit:10;stroke-width:1.8px;}</style></defs><path class="cls-2" d="M106.93,1.53l-36.85,69.83h-.31L50.56,1.53H15.73l-2.32,16.72h8.82l-10.06,71.99H3.2l-2.18,16.56h37.93l2.18-16.56h-9.45l7.13-50.31h.31l17.8,66.87h13.63l34.67-66.87h.31l-7.11,50.31h-8.84l-2.32,16.56h39.17l2.18-16.56h-8.84l10.06-71.99h8.98l2.32-16.72h-34.2Z"/><path class="cls-1" d="M219,47c1.33-1.1,2.57-2.36,3.71-3.74,3.42-4.18,5.53-9.11,6.35-14.78,1.24-8.57-.67-15.19-5.72-19.89s-13.1-7.06-24.16-7.06h-53.41l-2.32,16.72h8.82l-3.94,28.17-1.37,9.85-4.75,33.97h-8.96l-2.18,16.56h56.51c11.05,0,19.75-2.52,26.08-7.58,6.35-5.06,10.19-12.13,11.54-21.21,1.03-6.8.11-12.37-2.79-16.65-1.35-2-2.99-3.71-4.91-5.09-2.21-1.66-4.81-2.92-7.78-3.8v-.31c3.51-1.17,6.61-2.9,9.29-5.17ZM173.64,18.25h20.9c4.45,0,7.63,1.22,9.59,3.64,1.96,2.43,2.65,5.6,2.02,9.52-.52,4.03-2.09,7.24-4.72,9.61-2.63,2.36-6.17,3.55-10.6,3.55h-20.9l3.71-26.32ZM203.05,75.69c-.72,4.95-2.57,8.62-5.56,10.98-3.01,2.38-6.71,3.56-11.16,3.56h-22.9l4.18-29.11h21.98c4.95,0,8.62,1.24,10.98,3.73,2.38,2.47,3.2,6.08,2.48,10.84Z"/><path class="cls-1" d="M323.33,90.24l-6.05-33.97-1.51-8.48-8.23-46.26h-43.96l-2.48,16.72h10.53l-13.68,29.07-4.21,8.95-16,33.97h-9.76l-2.18,16.56h40.25l2.18-16.56h-9.76l7.13-15.32h32.19l2.32,15.32h-9.76l-2.32,16.56h41.49l2.18-16.56h-8.37ZM272.25,59.44l1.46-3.17,4.01-8.78,12.33-26.91h.16l4.19,27.04,1.35,8.66.49,3.17h-24Z"/><path class="cls-1" d="M423.19,31.72l3.73-25.85c-6.91-2.16-13.21-3.69-18.9-4.55-5.67-.88-11.56-1.31-17.64-1.31-5.26,0-10.28.54-15.01,1.62-4.75,1.08-9.04,2.79-12.85,5.11-3.82,2.32-7.02,5.36-9.59,9.13-2.59,3.76-4.23,8.28-4.95,13.54-.63,4.45-.34,8.42.85,11.93.83,2.47,2,4.72,3.51,6.77.65.88,1.37,1.71,2.14,2.52,2.02,2.11,4.39,4,7.09,5.65.74.47,1.49.9,2.27,1.31,3.67,1.96,7.67,3.55,12.01,4.79,2.99.83,5.9,1.66,8.75,2.48,2.83.83,5.31,1.8,7.42,2.93,2.12,1.13,3.74,2.54,4.88,4.18,1.13,1.66,1.55,3.73,1.24,6.19-.52,3.51-2.32,6.46-5.42,8.84-3.1,2.38-7.69,3.56-13.77,3.56-3.01,0-6.34-.22-9.99-.63-3.67-.41-7.97-1.19-12.92-2.32l1.55-11h-16.56l-3.56,26.01c6.91,2.07,13.63,3.55,20.13,4.41,6.5.88,12.8,1.31,18.88,1.31,5.58,0,10.89-.63,15.95-1.93,5.06-1.3,9.54-3.26,13.46-5.89,3.92-2.63,7.2-6.01,9.83-10.13,2.63-4.12,4.36-8.98,5.18-14.56.63-4.54.34-8.51-.85-11.92-.99-2.86-2.5-5.42-4.54-7.65-.36-.43-.77-.85-1.19-1.24-2.63-2.54-5.83-4.64-9.59-6.35-.13-.05-.25-.11-.38-.16-3.67-1.62-7.65-2.93-11.93-3.94-3.1-.72-6.05-1.55-8.82-2.47-2.79-.94-5.18-2.02-7.2-3.26s-3.56-2.65-4.64-4.25c-1.08-1.6-1.48-3.55-1.17-5.81.52-3.2,2.18-5.83,4.95-7.9,2.79-2.05,6.91-3.1,12.38-3.1,3.01,0,6.01.16,9.07.47,3.04.31,6.77.94,11.21,1.85l-1.71,11.61h16.72Z"/><path class="cls-1" d="M515.93,27.54l3.55-26.01h-80.81l-2.32,16.72h8.82l-4.27,30.57-1.04,7.45-4.75,33.97h-8.96l-2.18,16.56h80.81l3.56-25.85h-16.56l-1.39,9.29h-34.06l4.18-29.41h43.04l.63-4.55.95-6.93.74-5.24h-42.9l3.56-25.85h34.06l-1.39,9.29h16.72Z"/></svg>